<svg xmlns="http://www.w3.org/2000/svg" width="24" height="24" viewBox="0 0 24 24"><path d="M21.41 11.58l-9-9C12.04 2.21 11.53 2 11 2H4a2 2 0 0 0-2 2v7c0 .53.21 1.04.59 1.41l.41.4c.9-.54 1.94-.81 3-.81a6 6 0 0 1 6 6c0 1.06-.28 2.09-.82 3l.4.4c.37.38.89.6 1.42.6.53 0 1.04-.21 1.41-.59l7-7c.38-.37.59-.88.59-1.41 0-.53-.21-1.04-.59-1.42M5.5 7a1.5 1.5 0 1 1 0-3 1.5 1.5 0 0 1 0 3"/><text style="line-height:5.1974349px;-inkscape-font-specification:'Arial, Normal';font-variant-ligatures:normal;font-variant-caps:normal;font-variant-numeric:normal;text-align:start" x="3.742" y="20.352" transform="scale(1.00244 .99756)" font-weight="400" font-size="8.316" font-family="Arial" letter-spacing="0" word-spacing="0" stroke-width=".208"><tspan x="3.742" y="20.352" style="-inkscape-font-specification:'Arial Black, Bold'" font-weight="700" font-family="Arial Black">?</tspan></text></svg>